Coordinates
version=1
nRows=33
nColumns=30
inDegrees=yes

Units are S.I. units (second, meters, Newtons, ...)
Angles are in degrees.

endheader
time	floatyaw	floatroll	floatpitch	floatx	floaty	floatz	pro_sup_l	deviation_l	flexion_l	cmc_flexion_l	cmc_abduction_l	mp_flexion_l	ip_flexion_l	2mcp_flexion_l	2mcp_abduction_l	2pm_flexion_l	2md_flexion_l	3mcp_flexion_l	3mcp_abduction_l	3pm_flexion_l	3md_flexion_l	4mcp_flexion_l	4mcp_abduction_l	4pm_flexion_l	4md_flexion_l	5mcp_flexion_l	5mcp_abduction_l	5pm_flexion_l	5md_flexion_l
-0.995000	-2.367547	-3.808797	97.590660	-0.101367	-0.188679	-0.033434	86.042138	1.894696	-1.659639	12.792210	7.450996	-22.345231	-34.425311	39.556801	10.441516	47.141148	32.735586	23.115836	5.521444	46.349644	32.248641	11.970612	-4.722966	61.281251	42.177799	5.717495	-11.043887	61.433477	42.046962
-0.985000	-2.367547	-3.808797	97.590660	-0.101354	-0.188684	-0.033413	86.060413	1.892995	-1.675621	12.777677	7.416311	-22.371213	-34.446970	39.566018	10.441877	47.182323	32.750158	23.137307	5.523145	46.367691	32.256157	12.001752	-4.729549	61.297496	42.180495	5.728444	-11.025274	61.454413	42.048733
-0.975000	-2.367547	-3.808797	97.590660	-0.101343	-0.188681	-0.033392	86.091555	1.897666	-1.688325	12.763359	7.378776	-22.398688	-34.469729	39.570432	10.440956	47.218888	32.763145	23.157362	5.523815	46.380671	32.261394	12.033036	-4.734364	61.308919	42.182089	5.739475	-11.005090	61.482280	42.055481
-0.965000	-2.367547	-3.808797	97.590660	-0.101333	-0.188671	-0.033369	86.129185	1.906111	-1.697512	12.748466	7.339134	-22.424745	-34.490288	39.571510	10.436950	47.248989	32.773589	23.174897	5.522636	46.387500	32.263863	12.062996	-4.737610	61.313793	42.181794	5.752292	-10.985435	61.507773	42.063683
-0.955000	-2.367547	-3.808797	97.590660	-0.101324	-0.188663	-0.033345	86.164600	1.914192	-1.705210	12.733444	7.299734	-22.446447	-34.506625	39.571711	10.430290	47.273854	32.781587	23.190184	5.519648	46.390084	32.264586	12.091557	-4.739903	61.312964	42.179834	5.771977	-10.969426	61.524053	42.070051
-0.945000	-2.367547	-3.808797	97.590660	-0.101314	-0.188661	-0.033322	86.190338	1.918190	-1.714753	12.719479	7.262651	-22.461842	-34.518484	39.574115	10.423555	47.296347	32.787762	23.204906	5.515721	46.392361	32.265616	12.119425	-4.742001	61.309990	42.177677	5.803469	-10.959703	61.529237	42.073052
-0.935000	-2.367547	-3.808797	97.590660	-0.101299	-0.188671	-0.033300	86.202572	1.916089	-1.729086	12.707797	7.228064	-22.470394	-34.527036	39.581915	10.420514	47.318792	32.792493	23.221182	5.512481	46.398574	32.269219	12.147083	-4.744402	61.310362	42.177734	5.848577	-10.957955	61.527126	42.073620
-0.925000	-2.367547	-3.808797	97.590660	-0.101279	-0.188693	-0.033280	86.201352	1.907672	-1.749391	12.699088	7.193963	-22.472675	-34.533907	39.597587	10.424690	47.341777	32.795653	23.240065	5.512001	46.411631	32.277129	12.173944	-4.747002	61.319576	42.182431	5.905776	-10.965768	61.525924	42.074601
-0.915000	-2.367547	-3.808797	97.590660	-0.101256	-0.188725	-0.033262	86.189580	1.894089	-1.774818	12.693060	7.157193	-22.469690	-34.540081	39.621994	10.437823	47.364627	32.797046	23.260809	5.516020	46.432215	32.290096	12.198443	-4.749131	61.340671	42.193023	5.972152	-10.985115	61.534866	42.079090
-0.905000	-2.367547	-3.808797	97.590660	-0.101230	-0.188764	-0.033247	86.172261	1.877712	-1.803312	12.688082	7.115250	-22.462429	-34.545244	39.653853	10.458788	47.386680	32.796976	23.281752	5.524865	46.458740	32.307699	12.219424	-4.750125	61.372448	42.208813	6.044928	-11.016776	61.559361	42.088422
-0.895000	-2.367547	-3.808797	97.590660	-0.101204	-0.188801	-0.033234	86.156387	1.862289	-1.832676	12.681162	7.067996	-22.451997	-34.547997	39.689847	10.483602	47.408075	32.796353	23.302194	5.536741	46.487927	32.328320	12.237881	-4.750100	61.409460	42.227300	6.121054	-11.057331	61.596792	42.100922
-0.885000	-2.367547	-3.808797	97.590660	-0.101178	-0.188832	-0.033220	86.150303	1.852525	-1.861026	12.668774	7.018312	-22.440251	-34.546971	39.725230	10.506729	47.429741	32.796392	23.323399	5.548081	46.515796	32.349474	12.257354	-4.750226	61.444031	42.245238	6.196017	-11.097703	61.635987	42.112229
-0.875000	-2.367547	-3.808797	97.590660	-0.101153	-0.188850	-0.033205	86.161304	1.852544	-1.886572	12.648611	6.970948	-22.430273	-34.542230	39.754728	10.523129	47.453223	32.798431	23.347416	5.555057	46.539070	32.368711	12.282218	-4.752159	61.469543	42.260126	6.264223	-11.125617	61.661884	42.117229
-0.865000	-2.367547	-3.808797	97.590660	-0.101128	-0.188853	-0.033190	86.192185	1.863984	-1.907517	12.621531	6.929937	-22.425888	-34.535950	39.773733	10.530133	47.480773	32.804069	23.374485	5.555579	46.556672	32.384913	12.315038	-4.757130	61.483500	42.271363	6.321368	-11.131089	61.663431	42.112695
-0.855000	-2.367547	-3.808797	97.590660	-0.101102	-0.188843	-0.033177	86.239015	1.885188	-1.922745	12.592243	6.896237	-22.430147	-34.531704	39.779819	10.528318	47.515240	32.815196	23.401477	5.550600	46.570625	32.399188	12.355076	-4.765515	61.488776	42.280464	6.366735	-11.111241	61.640097	42.099293
-0.845000	-2.367547	-3.808797	97.590660	-0.101075	-0.188828	-0.033169	86.291946	1.912193	-1.932931	12.567731	6.867352	-22.443789	-34.532797	39.774150	10.520960	47.559027	32.833315	23.423148	5.543669	46.585527	32.414529	12.398975	-4.777076	61.492248	42.290184	6.403210	-11.071250	61.603053	42.081894
-0.835000	-2.367547	-3.808797	97.590660	-0.101045	-0.188817	-0.033171	86.338855	1.940688	-1.940856	12.553928	6.839054	-22.464924	-34.540859	39.761890	10.512330	47.612174	32.858242	23.435507	5.538848	46.606405	32.434071	12.442761	-4.791271	61.501492	42.303062	6.435029	-11.021248	61.570460	42.067905
-0.825000	-2.367547	-3.808797	97.590660	-0.101012	-0.188817	-0.033182	86.370109	1.967630	-1.950229	12.552696	6.807599	-22.490075	-34.555469	39.750998	10.505780	47.670787	32.887094	23.438778	5.538336	46.635766	32.458854	12.483514	-4.807131	61.521413	42.320239	6.465172	-10.971569	61.559720	42.064359
-0.815000	-2.367547	-3.808797	97.590660	-0.100977	-0.188829	-0.033202	86.382352	1.991801	-1.963679	12.561075	6.770926	-22.515589	-34.574686	39.749645	10.502646	47.727414	32.914596	23.437850	5.541392	46.671617	32.486568	12.519945	-4.822974	61.552628	42.341174	6.494367	-10.929006	61.580678	42.075036
-0.805000	-2.367547	-3.808797	97.590660	-0.100943	-0.188848	-0.033226	86.379644	2.013525	-1.981383	12.573220	6.728813	-22.538413	-34.595871	39.763266	10.502380	47.773826	32.934989	23.440114	5.545087	46.708095	32.512332	12.552207	-4.836675	61.592093	42.364183	6.522153	-10.895418	61.632635	42.098887
-0.795000	-2.367547	-3.808797	97.590660	-0.100914	-0.188867	-0.033251	86.371357	2.034003	-2.001267	12.583631	6.682873	-22.556157	-34.616375	39.792410	10.503528	47.804872	32.944634	23.452116	5.546106	46.738717	32.531223	12.581595	-4.846658	61.635114	42.387274	6.548779	-10.868450	61.705911	42.130354
-0.785000	-2.367547	-3.808797	97.590660	-0.100889	-0.188879	-0.033272	86.367753	2.054594	-2.020506	12.589652	6.636627	-22.567124	-34.634109	39.832248	10.504794	47.821064	32.943843	23.476667	5.542425	46.760160	32.540981	12.610124	-4.852949	61.677396	42.408802	6.576171	-10.843548	61.786725	42.161433
-0.775000	-2.367547	-3.808797	97.590660	-0.100870	-0.188882	-0.033289	86.375343	2.076160	-2.037163	12.591939	6.594928	-22.570892	-34.648077	39.874010	10.505575	47.828222	32.936808	23.511525	5.534068	46.773873	32.543085	12.639633	-4.857338	61.716152	42.427777	6.607078	-10.816477	61.862803	42.184481
-0.765000	-2.367547	-3.808797	97.590660	-0.100853	-0.188877	-0.033303	86.394245	2.098649	-2.050928	12.593102	6.562154	-22.569091	-34.658739	39.907975	10.505775	47.834445	32.929663	23.550124	5.522875	46.784524	32.541642	12.670493	-4.862357	61.750059	42.443855	6.642990	-10.785503	61.926979	42.194533
-0.755000	-2.367547	-3.808797	97.590660	-0.100838	-0.188872	-0.033316	86.418739	2.121116	-2.062816	12.595785	6.539823	-22.565304	-34.667759	39.926960	10.505196	47.846356	32.927798	23.584117	5.511651	46.796720	32.541078	12.700844	-4.869713	61.778508	42.457138	6.682380	-10.752338	61.977380	42.190192
-0.745000	-2.367547	-3.808797	97.590660	-0.100825	-0.188872	-0.033330	86.440598	2.142182	-2.074367	12.601342	6.525165	-22.563437	-34.676909	39.928833	10.503118	47.866640	32.933811	23.606685	5.503183	46.812439	32.544220	12.727316	-4.879225	61.800849	42.467879	6.720742	-10.721344	62.014924	42.173110
-0.735000	-2.367547	-3.808797	97.590660	-0.100817	-0.188880	-0.033346	86.453354	2.160716	-2.086866	12.609432	6.511875	-22.565525	-34.686728	39.916880	10.498544	47.893608	32.946836	23.615136	5.499438	46.830545	32.551677	12.747113	-4.888955	61.816166	42.476201	6.752616	-10.697338	62.040484	42.146778
-0.725000	-2.367547	-3.808797	97.590660	-0.100815	-0.188896	-0.033363	86.455331	2.176531	-2.100754	12.618239	6.492936	-22.570889	-34.696133	39.897937	10.490975	47.922241	32.963178	23.611658	5.500990	46.848132	32.562316	12.760043	-4.896422	61.823612	42.481902	6.774141	-10.682969	62.053893	42.115512
-0.715000	-2.367547	-3.808797	97.590660	-0.100821	-0.188914	-0.033380	86.450061	2.190871	-2.115300	12.625024	6.464018	-22.577561	-34.703534	39.879396	10.481022	47.946022	32.977787	23.602034	5.506679	46.862563	32.574177	12.768851	-4.900090	61.822891	42.484423	6.784332	-10.676788	62.055127	42.083902
-0.705000	-2.367547	-3.808797	97.590660	-0.100835	-0.188929	-0.033397	86.444079	2.206336	-2.128709	12.626945	6.425493	-22.584661	-34.708598	39.866533	10.470283	47.959124	32.986071	23.593000	5.513674	46.872990	32.585291	12.777483	-4.900247	61.814426	42.482991	6.784562	-10.673059	62.045920	42.056256
-0.695000	-2.367547	-3.808797	97.590660	-0.100855	-0.188934	-0.033415	86.443289	2.225849	-2.138765	12.622103	6.382013	-22.593426	-34.713035	39.861086	10.460575	47.958456	32.985484	23.589514	5.518222	46.880608	32.594185	12.788632	-4.898807	61.799185	42.476985	6.777347	-10.663808	62.029754	42.035524
-0.685000	-2.367547	-3.808797	97.590660	-0.100878	-0.188928	-0.033435	86.449831	2.250899	-2.143864	12.610674	6.340104	-22.605914	-34.719703	39.861439	10.453114	47.944918	32.976354	23.593219	5.517073	46.887835	32.600146	12.802459	-4.898232	61.778626	42.466462	6.765829	-10.642580	62.010134	42.022048
-0.675000	-2.367547	-3.808797	97.590660	-0.100900	-0.188911	-0.033457	86.461056	2.280048	-2.143902	12.595697	6.305320	-22.622548	-34.730715	39.864279	10.448114	47.923443	32.961737	23.602653	5.509000	46.897322	32.603430	12.817244	-4.900207	61.755074	42.452610	6.754260	-10.608181	61.989083	42.013199
